<svg width="216" height="34" viewBox="0 0 216 34" fill="none" xmlns="http://www.w3.org/2000/svg">
<path d="M21.015 11.311L19.3042 9.33701C19.1941 9.20996 19.0342 9.13696 18.8661 9.13696H14.3517C14.0923 9.13696 13.8645 9.3093 13.7939 9.55892L11.8841 16.3112L10.2028 23.6184C10.1396 23.8932 10.4662 24.0874 10.6774 23.9005L26.3775 10.0066" stroke="url(#paint0_linear_39_185)" stroke-width="3.948"/>
<path d="M26.3776 17.2534L33.7443 9.8866C33.853 9.77788 34.0005 9.7168 34.1543 9.7168H38.5406C38.8036 9.7168 39.0337 9.8939 39.101 10.1482L42.6746 23.6483C42.7461 23.9187 42.4311 24.1236 42.2129 23.9486L31.8851 15.6591" stroke="url(#paint1_linear_39_185)" stroke-width="3.948"/>
<path d="M62.372 25V11.08H57.476V8.2H70.436V11.08H65.54V25H62.372ZM72.5934 25V8.2H83.3934V11.08H75.7614V15.088H82.7214V17.968H75.7614V22.12H83.5374V25H72.5934ZM84.7304 25L89.1464 8.2H94.6664L99.0824 25H95.8184L94.9064 21.304H88.9064L87.9944 25H84.7304ZM89.6504 18.376H94.1624L92.1224 10.192H91.6904L89.6504 18.376ZM101.093 25V8.2H106.973L109.877 22.84H110.309L113.213 8.2H119.093V25H116.021V10.528H115.589L112.709 25H107.477L104.597 10.528H104.165V25H101.093ZM125.377 25L121.105 8.2H124.369L127.921 22.96H128.257L131.809 8.2H135.073L130.801 25H125.377ZM137.093 25V8.2H147.893V11.08H140.261V15.088H147.221V17.968H140.261V22.12H148.037V25H137.093ZM150.382 25V8.2H157.678C158.734 8.2 159.654 8.384 160.438 8.752C161.222 9.12 161.83 9.64 162.262 10.312C162.694 10.984 162.91 11.776 162.91 12.688V12.976C162.91 13.984 162.67 14.8 162.19 15.424C161.71 16.048 161.118 16.504 160.414 16.792V17.224C161.054 17.256 161.55 17.48 161.902 17.896C162.254 18.296 162.43 18.832 162.43 19.504V25H159.262V19.96C159.262 19.576 159.158 19.264 158.95 19.024C158.758 18.784 158.43 18.664 157.966 18.664H153.55V25H150.382ZM153.55 15.784H157.342C158.094 15.784 158.678 15.584 159.094 15.184C159.526 14.768 159.742 14.224 159.742 13.552V13.312C159.742 12.64 159.534 12.104 159.118 11.704C158.702 11.288 158.11 11.08 157.342 11.08H153.55V15.784ZM171.378 25.336C170.082 25.336 168.938 25.104 167.946 24.64C166.954 24.176 166.178 23.512 165.618 22.648C165.058 21.784 164.778 20.744 164.778 19.528V18.856H167.898V19.528C167.898 20.536 168.21 21.296 168.834 21.808C169.458 22.304 170.306 22.552 171.378 22.552C172.466 22.552 173.274 22.336 173.802 21.904C174.346 21.472 174.618 20.92 174.618 20.248C174.618 19.784 174.482 19.408 174.21 19.12C173.954 18.832 173.57 18.6 173.058 18.424C172.562 18.232 171.954 18.056 171.234 17.896L170.682 17.776C169.53 17.52 168.538 17.2 167.706 16.816C166.89 16.416 166.258 15.896 165.81 15.256C165.378 14.616 165.162 13.784 165.162 12.76C165.162 11.736 165.402 10.864 165.882 10.144C166.378 9.408 167.066 8.848 167.946 8.464C168.842 8.064 169.89 7.864 171.09 7.864C172.29 7.864 173.354 8.072 174.282 8.488C175.226 8.888 175.962 9.496 176.49 10.312C177.034 11.112 177.306 12.12 177.306 13.336V14.056H174.186V13.336C174.186 12.696 174.058 12.184 173.802 11.8C173.562 11.4 173.21 11.112 172.746 10.936C172.282 10.744 171.73 10.648 171.09 10.648C170.13 10.648 169.418 10.832 168.954 11.2C168.506 11.552 168.282 12.04 168.282 12.664C168.282 13.08 168.386 13.432 168.594 13.72C168.818 14.008 169.146 14.248 169.578 14.44C170.01 14.632 170.562 14.8 171.234 14.944L171.786 15.064C172.986 15.32 174.026 15.648 174.906 16.048C175.802 16.448 176.498 16.976 176.994 17.632C177.49 18.288 177.738 19.128 177.738 20.152C177.738 21.176 177.474 22.08 176.946 22.864C176.434 23.632 175.698 24.24 174.738 24.688C173.794 25.12 172.674 25.336 171.378 25.336ZM180.101 25V8.2H190.901V11.08H183.269V15.088H190.229V17.968H183.269V22.12H191.045V25H180.101Z" fill="white"/>
<defs>
<linearGradient id="paint0_linear_39_185" x1="26.4009" y1="9.12009" x2="7.87057" y2="14.3305" gradientUnits="userSpaceOnUse">
<stop stop-color="#5552FF"/>
<stop offset="0.649217" stop-color="#AA2C82"/>
<stop offset="0.85" stop-color="#DA100B"/>
</linearGradient>
<linearGradient id="paint1_linear_39_185" x1="42.9236" y1="9.70056" x2="24.3641" y2="15.1718" gradientUnits="userSpaceOnUse">
<stop stop-color="#5552FF"/>
<stop offset="0.649217" stop-color="#AA2C82"/>
<stop offset="0.85" stop-color="#DA100B"/>
</linearGradient>
</defs>
</svg>
