<svg width="37" height="19" viewBox="0 0 37 19" fill="none" xmlns="http://www.w3.org/2000/svg">
<path d="M13.015 4.31097L11.3042 2.33701C11.1941 2.20996 11.0342 2.13696 10.8661 2.13696H6.35173C6.09231 2.13696 5.86447 2.3093 5.79387 2.55892L3.88414 9.31119L2.20284 16.6184C2.1396 16.8932 2.46624 17.0874 2.67742 16.9005L18.3775 3.00657" stroke="url(#paint0_linear_39_186)" stroke-width="3.948"/>
<path d="M18.3776 10.2534L25.7443 2.8866C25.853 2.77788 26.0005 2.7168 26.1543 2.7168H30.5406C30.8036 2.7168 31.0337 2.8939 31.101 3.14818L34.6746 16.6483C34.7461 16.9187 34.4311 17.1236 34.2129 16.9486L23.8851 8.65909" stroke="url(#paint1_linear_39_186)" stroke-width="3.948"/>
<defs>
<linearGradient id="paint0_linear_39_186" x1="18.4009" y1="2.12009" x2="-0.129429" y2="7.33047" gradientUnits="userSpaceOnUse">
<stop stop-color="#5552FF"/>
<stop offset="0.649217" stop-color="#AA2C82"/>
<stop offset="0.85" stop-color="#DA100B"/>
</linearGradient>
<linearGradient id="paint1_linear_39_186" x1="34.9236" y1="2.70056" x2="16.3641" y2="8.17177" gradientUnits="userSpaceOnUse">
<stop stop-color="#5552FF"/>
<stop offset="0.649217" stop-color="#AA2C82"/>
<stop offset="0.85" stop-color="#DA100B"/>
</linearGradient>
</defs>
</svg>
