<svg width="28" height="28" viewBox="0 0 28 28" fill="none" xmlns="http://www.w3.org/2000/svg">
<path d="M3.5 9.33325H24.5V13.9999C24.5 16.7498 24.5 18.1247 23.6457 18.979C22.7915 19.8333 21.4165 19.8333 18.6667 19.8333H9.33333C6.58347 19.8333 5.20854 19.8333 4.35427 18.979C3.5 18.1247 3.5 16.7498 3.5 13.9999V9.33325Z" stroke="#CCCCCC" stroke-width="2" stroke-linecap="round"/>
<path d="M8.16797 6.99992C8.16797 4.80003 8.16797 3.70009 8.85139 3.01667C9.5348 2.33325 10.6347 2.33325 12.8346 2.33325H15.168C17.3679 2.33325 18.4678 2.33325 19.1512 3.01667C19.8346 3.70009 19.8346 4.80003 19.8346 6.99992V9.33325H8.16797V6.99992Z" stroke="#CCCCCC" stroke-width="2" stroke-linecap="round"/>
<path d="M5.83398 19.8333V25.6666M22.1673 19.8333V25.6666" stroke="#CCCCCC" stroke-width="2" stroke-linecap="round"/>
<path d="M9.33398 19.8333V23.3333M18.6673 19.8333V23.3333" stroke="#CCCCCC" stroke-width="2" stroke-linecap="round"/>
<path d="M2.33398 9.33325L4.4552 9.33325M23.5461 9.33325L25.6673 9.33325" stroke="#CCCCCC" stroke-width="2" stroke-linecap="round"/>
</svg>
