<svg width="26" height="26" viewBox="0 0 26 26" fill="none" xmlns="http://www.w3.org/2000/svg">
<path d="M2.5 8.33325H23.5V12.9999C23.5 15.7498 23.5 17.1247 22.6457 17.979C21.7915 18.8333 20.4165 18.8333 17.6667 18.8333H8.33333C5.58347 18.8333 4.20854 18.8333 3.35427 17.979C2.5 17.1247 2.5 15.7498 2.5 12.9999V8.33325Z" stroke="#CCCCCC" stroke-width="2" stroke-linecap="round"/>
<path d="M7.16797 5.99992C7.16797 3.80003 7.16797 2.70009 7.85139 2.01667C8.5348 1.33325 9.63475 1.33325 11.8346 1.33325H14.168C16.3679 1.33325 17.4678 1.33325 18.1512 2.01667C18.8346 2.70009 18.8346 3.80003 18.8346 5.99992V8.33325H7.16797V5.99992Z" stroke="#CCCCCC" stroke-width="2" stroke-linecap="round"/>
<path d="M4.83398 18.8333V24.6666M21.1673 18.8333V24.6666" stroke="#CCCCCC" stroke-width="2" stroke-linecap="round"/>
<path d="M8.33398 18.8333V22.3333M17.6673 18.8333V22.3333" stroke="#CCCCCC" stroke-width="2" stroke-linecap="round"/>
<path d="M1.33398 8.33325L3.4552 8.33325M22.5461 8.33325L24.6673 8.33325" stroke="#CCCCCC" stroke-width="2" stroke-linecap="round"/>
</svg>
