<svg width="28" height="28" viewBox="0 0 28 28" fill="none" xmlns="http://www.w3.org/2000/svg">
<path d="M24.5007 20.4166C24.5007 22.6717 22.6725 24.4999 20.4173 24.4999C18.1622 24.4999 16.334 22.6717 16.334 20.4166C16.334 18.1614 18.1622 16.3333 20.4173 16.3333C22.6725 16.3333 24.5007 18.1614 24.5007 20.4166Z" stroke="#CCCCCC" stroke-width="2"/>
<path d="M20.4167 16.3333H7.58333C5.32817 16.3333 3.5 18.1614 3.5 20.4166C3.5 22.6717 5.32817 24.4999 7.58333 24.4999H20.4167C22.6718 24.4999 24.5 22.6717 24.5 20.4166C24.5 18.1614 22.6718 16.3333 20.4167 16.3333Z" stroke="#CCCCCC" stroke-width="2"/>
<path d="M3.49935 7.58333C3.49935 9.8385 5.32752 11.6667 7.58268 11.6667C9.83784 11.6667 11.666 9.8385 11.666 7.58333C11.666 5.32817 9.83784 3.5 7.58268 3.5C5.32752 3.5 3.49935 5.32817 3.49935 7.58333Z" stroke="#CCCCCC" stroke-width="2"/>
<path d="M7.58333 3.5H20.4167C22.6718 3.5 24.5 5.32817 24.5 7.58333C24.5 9.8385 22.6718 11.6667 20.4167 11.6667H7.58334C5.32817 11.6667 3.5 9.8385 3.5 7.58333C3.5 5.32817 5.32817 3.5 7.58333 3.5Z" stroke="#CCCCCC" stroke-width="2"/>
</svg>
