<svg width="28" height="28" viewBox="0 0 28 28" fill="none" xmlns="http://www.w3.org/2000/svg">
<path d="M4.08398 21C4.08398 19.3501 4.08398 18.5251 4.59655 18.0126C5.10911 17.5 5.93407 17.5 7.58398 17.5H8.16732C9.26726 17.5 9.81723 17.5 10.1589 17.8417C10.5007 18.1834 10.5007 18.7334 10.5007 19.8333V25.6667H4.08398V21Z" stroke="#CCCCCC" stroke-width="2" stroke-linecap="round" stroke-linejoin="round"/>
<path d="M17.5 22.1666C17.5 21.0666 17.5 20.5167 17.8417 20.175C18.1834 19.8333 18.7334 19.8333 19.8333 19.8333H20.4167C22.0666 19.8333 22.8915 19.8333 23.4041 20.3458C23.9167 20.8584 23.9167 21.6833 23.9167 23.3333V25.6666H17.5V22.1666Z" stroke="#CCCCCC" stroke-width="2" stroke-linecap="round" stroke-linejoin="round"/>
<path d="M2.33398 25.6665H25.6673" stroke="#CCCCCC" stroke-width="2" stroke-linecap="round" stroke-linejoin="round"/>
<path d="M10.5 18.6665C10.5 17.0166 10.5 16.1916 11.0126 15.6791C11.5251 15.1665 12.3501 15.1665 14 15.1665C15.6499 15.1665 16.4749 15.1665 16.9874 15.6791C17.5 16.1916 17.5 17.0166 17.5 18.6665V25.6665H10.5V18.6665Z" stroke="#CCCCCC" stroke-width="2" stroke-linecap="round" stroke-linejoin="round"/>
<path d="M14.8069 3.0072L15.6281 4.66326C15.7401 4.89379 16.0387 5.11491 16.2907 5.15726L17.7792 5.4066C18.7311 5.56656 18.9551 6.26286 18.2692 6.94975L17.112 8.11652C16.916 8.31412 16.8087 8.6952 16.8693 8.96807L17.2006 10.4124C17.4619 11.5557 16.86 11.9979 15.8568 11.4004L14.4616 10.5677C14.2096 10.4171 13.7943 10.4171 13.5377 10.5677L12.1425 11.4004C11.144 11.9979 10.5374 11.551 10.7987 10.4124L11.13 8.96807C11.1906 8.6952 11.0833 8.31412 10.8873 8.11652L9.73011 6.94975C9.04885 6.26286 9.26816 5.56656 10.2201 5.4066L11.7086 5.15726C11.9559 5.11491 12.2545 4.89379 12.3665 4.66326L13.1877 3.0072C13.6357 2.1086 14.3636 2.1086 14.8069 3.0072Z" stroke="#CCCCCC" stroke-width="2" stroke-linecap="round" stroke-linejoin="round"/>
</svg>
