<svg width="22" height="20" viewBox="0 0 22 20" fill="none" xmlns="http://www.w3.org/2000/svg">
<path d="M9 5H15C17.8284 5 19.2426 5 20.1213 5.87868C21 6.75736 21 8.17157 21 11V13C21 15.8284 21 17.2426 20.1213 18.1213C19.2426 19 17.8284 19 15 19H9C5.22876 19 3.34315 19 2.17157 17.8284C1 16.6569 1 14.7712 1 11V9C1 5.22876 1 3.34315 2.17157 2.17157C3.34315 1 5.22876 1 9 1H13C13.93 1 14.395 1 14.7765 1.10222C15.8117 1.37962 16.6204 2.18827 16.8978 3.22354C17 3.60504 17 4.07003 17 5" stroke="white" stroke-width="1.5" stroke-linecap="round"/>
</svg>
