<svg width="22" height="24" viewBox="0 0 22 24" fill="none" xmlns="http://www.w3.org/2000/svg">
<path d="M10.5703 0.940007C11.4658 0.908737 12.3374 0.996372 13.1706 1.18841L11.12 3.38631C10.9645 3.55377 10.8286 3.73846 10.715 3.93678L10.675 3.93818C9.2914 3.9865 7.95317 4.44402 6.82957 5.2529C5.70597 6.06177 4.84747 7.18567 4.36261 8.48246C3.87776 9.77926 3.78834 11.1907 4.10566 12.5383C4.42299 13.8859 5.13279 15.1092 6.14533 16.0534C7.15787 16.9976 8.42766 17.6203 9.79412 17.8429C11.1606 18.0654 12.5624 17.8778 13.8222 17.3036C15.082 16.7295 16.1433 15.7947 16.8718 14.6174C17.6003 13.4401 17.9634 12.0732 17.9151 10.6896L17.9137 10.6496C18.1027 10.523 18.276 10.3752 18.4335 10.2062L20.484 8.00833C20.7337 8.82611 20.882 9.68947 20.9132 10.5849C21.106 16.1046 16.7879 20.7351 11.2683 20.9278C5.74868 21.1206 1.11816 16.8025 0.925411 11.2829C0.732661 5.76327 5.05069 1.13276 10.5703 0.940007ZM10.3317 5.9684C10.3614 6.81888 10.3495 7.68282 10.4251 8.5307L9.90432 9.08921C9.72516 9.28134 9.5856 9.50687 9.4936 9.75293C9.4016 9.99899 9.35897 10.2608 9.36814 10.5233C9.37731 10.7858 9.4381 11.044 9.54703 11.283C9.65597 11.5221 9.81093 11.7373 10.0031 11.9165C10.1952 12.0956 10.4207 12.2352 10.6668 12.3272C10.9128 12.4192 11.1746 12.4618 11.4371 12.4527C11.6997 12.4435 11.9578 12.3827 12.1969 12.2738C12.4359 12.1648 12.6512 12.0099 12.8303 11.8178L13.3512 11.2592C14.2022 11.2756 15.0623 11.2035 15.9137 11.1738C15.868 12.1263 15.5507 13.0458 14.9995 13.824C14.4483 14.6021 13.686 15.2064 12.8026 15.5656C11.9192 15.9247 10.9515 16.0238 10.0136 15.851C9.07581 15.6782 8.20694 15.2409 7.50951 14.5905C6.81207 13.9401 6.31517 13.1039 6.07741 12.1804C5.83964 11.2569 5.87093 10.2846 6.16757 9.37834C6.46422 8.47203 7.01386 7.66946 7.75167 7.06528C8.48947 6.4611 9.38466 6.08051 10.3317 5.9684ZM17.0748 0.839943C17.2599 0.909206 17.4202 1.03174 17.5357 1.19208C17.6512 1.35242 17.7166 1.54338 17.7236 1.74085L17.7875 3.56973L19.6154 3.5059C19.813 3.49904 20.0082 3.55093 20.1764 3.65501C20.3445 3.75909 20.478 3.91069 20.56 4.09064C20.642 4.27058 20.6689 4.4708 20.6371 4.66598C20.6053 4.86116 20.5164 5.04254 20.3815 5.18719L16.97 8.84148C16.7891 9.03545 16.5387 9.14966 16.2736 9.15897L13.8621 9.24318L12.0991 11.1349C11.9181 11.3289 11.6674 11.4432 11.4022 11.4524C11.137 11.4617 10.879 11.3652 10.6849 11.1842C10.4908 11.0033 10.3766 10.7526 10.3673 10.4874C10.3581 10.2222 10.4546 9.96419 10.6355 9.77011L12.3997 7.88039L12.3154 5.46786C12.3107 5.33647 12.332 5.20543 12.378 5.08227C12.424 4.9591 12.4938 4.84621 12.5835 4.75007L15.993 1.09385C16.1279 0.949124 16.3026 0.847653 16.4952 0.802279C16.6878 0.756904 16.8895 0.769663 17.0748 0.838943" fill="white"/>
</svg>
