<svg width="26" height="26" viewBox="0 0 26 26" fill="none" xmlns="http://www.w3.org/2000/svg">
<path d="M6.66929 5.06051L4.67051 5.13031L4.60071 3.13153L20.591 2.57314L20.6608 4.57192L18.662 4.64172L18.7318 6.6405C18.7881 8.25452 18.018 9.5822 17.0277 10.6794C16.3505 11.4295 15.5193 12.128 14.6748 12.7858C15.5632 13.3832 16.441 14.0219 17.1689 14.723C18.2333 15.7484 19.0942 17.0192 19.1506 18.6332L19.2204 20.632L21.2192 20.5622L21.289 22.561L5.2987 23.1193L5.2289 21.1206L7.22768 21.0508L7.15788 19.052C7.10152 17.438 7.87165 16.1103 8.86196 15.0131C9.5392 14.263 10.3703 13.5645 11.2149 12.9067C10.3265 12.3093 9.44867 11.6705 8.72076 10.9695C7.65632 9.94404 6.79545 8.67331 6.73909 7.0593L6.66929 5.06051ZM8.66807 4.99071L8.73787 6.9895C8.76178 7.67408 9.0443 8.31461 9.5782 8.96137L16.0323 8.73599C16.5187 8.0536 16.7569 7.39488 16.733 6.7103L16.6632 4.71152L8.66807 4.99071ZM12.9875 14.0675C11.9689 14.8415 11.047 15.5771 10.3466 16.3531C10.1725 16.545 10.0092 16.7464 9.85739 16.9565L16.3115 16.7311C16.1454 16.5322 15.9684 16.3426 15.7813 16.1633C15.0286 15.4381 14.0576 14.7686 12.9875 14.0675Z" fill="white"/>
</svg>
