<svg width="100" height="100" viewBox="0 0 100 100" fill="none" xmlns="http://www.w3.org/2000/svg">
<path d="M86.275 50.9786C87.0264 56.9493 84.6684 62.8963 79.9939 66.746L83.3594 72.3077C84.366 73.9881 84.62 76.03 83.9688 77.8996C83.3564 79.7666 81.9445 81.299 80.1298 82.0427L77.1398 83.2151C75.8962 83.7276 74.525 83.8448 73.2125 83.5509C71.9 83.2569 70.7098 82.5661 69.8036 81.5722L60.9545 72.4559C57.4736 72.1074 54.1262 70.8565 51.2322 68.8369C49.3376 69.5471 47.4248 69.9866 45.4912 70.1168C42.088 70.3458 38.6146 69.5306 35.6175 67.7123C33.6096 68.469 31.5395 68.8802 29.4099 68.9847C26.3574 69.2289 23.2993 68.8132 20.3982 67.843C17.598 66.8154 15.1436 65.0204 13.3156 62.6634C11.4876 60.3064 10.3598 57.4825 10.0613 54.5147C9.56457 51.7512 9.83865 48.8969 10.8657 46.2638C9.54904 43.4389 9.21962 40.2756 9.98863 37.2714C11.1723 33.5012 13.6737 30.264 16.9081 28.1039C18.7112 21.4174 24.7207 16.6232 31.6743 16.6214C37.4715 10.4042 46.9045 9.14783 54.1239 13.6733C55.7195 13.1386 57.4055 12.7921 59.1071 12.6775C64.3587 12.2076 69.5035 14.1922 73.0691 18.1089C81.0962 19.6276 87.216 26.286 88.0771 34.4637C88.5594 38.7433 87.6829 43.0367 85.5659 46.7919C85.9303 48.1659 86.1787 49.5477 86.275 50.9786ZM66.5719 46.827C68.7944 46.9494 70.6466 48.4952 70.7949 50.6995C70.864 51.7252 70.5227 52.7362 69.8463 53.5103C69.1698 54.2843 68.2136 54.758 67.188 54.827L64.7516 54.9909C63.7483 58.5547 61.7883 61.7556 59.0827 64.2685C60.0729 64.5515 61.0914 64.6772 62.1151 64.8802C81.9357 63.2744 78.8008 51.3262 78.7878 51.1328C78.6494 49.8205 78.2537 48.5484 77.6233 47.3891C76.9928 46.2299 76.14 45.2064 75.1136 44.377C74.0873 43.5477 72.9074 42.9288 71.6417 42.5559C70.3759 42.1829 69.049 42.0632 67.7369 42.2035C66.7113 42.2725 65.7002 41.9313 64.9262 41.2548C64.1521 40.5784 63.6785 39.6222 63.6095 38.5965C63.5405 37.5709 63.8817 36.5598 64.5581 35.7858C65.2346 35.0117 66.1908 34.5381 67.2164 34.469C71.9809 34.265 76.664 35.7368 80.4326 38.6298C80.5505 37.4953 80.5885 36.3273 80.5104 35.1672C79.9556 30.3874 77.5089 26.3566 68.753 26.13C63.1486 15.0083 51.3937 22.1704 51.6331 25.7282C51.577 26.6255 52.6326 28.458 52.7951 28.5636C53.8208 28.4945 54.8318 28.8358 55.6059 29.5122C56.3799 30.1887 56.8536 31.1449 56.9226 32.1705C57.0657 34.2975 55.4426 36.1549 53.3156 36.298C51.2608 36.3586 49.2751 35.7153 47.6398 34.5045C45.8642 35.8283 43.7867 36.7062 41.5979 37.0866C39.4066 37.4283 37.485 36.0037 37.2258 33.8845C37.1217 33.3843 37.1207 32.868 37.2228 32.3673C37.3249 31.8667 37.5281 31.392 37.8198 30.9725C38.1115 30.5529 38.4856 30.1973 38.9194 29.9272C39.3532 29.6571 39.8375 29.4782 40.3427 29.4016C40.9562 29.2826 43.9414 28.6155 43.7775 26.1792C43.6057 23.6268 44.4086 21.1254 45.9413 19.0799C42.3184 18.3525 38.5758 19.8863 35.0234 24.8259C27.8323 24.1833 24.9969 25.3453 23.3774 33.0295C19.8259 35.0943 17.9782 36.5006 17.3876 40.4251C21.507 39.2933 25.823 39.3524 29.9052 40.5539C31.8882 41.1586 33.1168 43.2513 32.5225 45.3891C31.9231 47.4495 29.7478 48.6059 27.6874 48.0065C24.781 46.9589 21.6047 47.095 18.7771 48.373C17.6099 49.5004 17.7556 51.6661 17.8701 53.3677C18.0627 56.2294 19.6732 58.8015 22.2136 60.1844C24.3335 61.0907 26.6516 61.4785 28.9307 61.2863C28.2829 60.3199 27.7099 59.3095 27.2117 58.2553C26.8403 57.2823 26.8609 56.2031 27.2689 55.2448C27.677 54.2865 28.4408 53.5238 29.3996 53.1172C30.3585 52.7105 31.4377 52.6915 32.4102 53.0642C33.3828 53.4369 34.1729 54.1722 34.6144 55.1155C36.458 59.4201 40.6056 62.1711 45.2801 62.3615C50.56 61.7342 55.0672 58.2843 57.0622 53.2941C57.5925 47.8975 61.8539 47.1445 66.5719 46.827ZM76.2504 75.1947L73.5144 70.3287L70.8103 71.1322L75.0029 75.706L76.2504 75.1947ZM56.0271 43.1081C55.9942 42.1179 55.5834 41.1779 54.8791 40.4811C54.1747 39.7844 53.2303 39.3838 52.2398 39.3617C49.4837 39.3917 46.8778 40.4995 44.9505 42.455C42.8971 44.8463 41.9451 48.0182 42.272 51.1428C42.341 52.1685 42.8146 53.1247 43.5887 53.8011C44.3627 54.4776 45.3738 54.8188 46.3994 54.7498C48.6037 54.6014 50.1495 52.7493 50.0064 50.6223C49.9361 49.5782 50.1366 48.5158 50.6981 47.6234C51.1361 47.2054 51.7032 46.973 52.3219 46.9314C54.4567 46.9042 56.1676 45.1964 56.0271 43.1081Z" fill="white"/>
</svg>
