<svg width="76" height="100" viewBox="0 0 76 100" fill="none" xmlns="http://www.w3.org/2000/svg">
<path d="M84.5934 0.57373H15.4803C7.08795 0.57373 0.670303 6.99138 0.670303 15.3837V84.4968C0.670303 92.8891 7.08795 99.3068 15.4803 99.3068H84.5934C92.9857 99.3068 99.4033 92.8891 99.4033 84.4968V15.3837C99.4033 6.99138 92.9857 0.57373 84.5934 0.57373ZM30.2902 74.6235C30.2902 77.5855 28.3156 79.5602 25.3536 79.5602C22.3916 79.5602 20.4169 77.5855 20.4169 74.6235V54.8769C20.4169 51.9149 22.3916 49.9402 25.3536 49.9402C28.3156 49.9402 30.2902 51.9149 30.2902 54.8769V74.6235ZM54.9735 74.6235C54.9735 77.5855 52.9988 79.5602 50.0368 79.5602C47.0748 79.5602 45.1002 77.5855 45.1002 74.6235V25.257C45.1002 22.295 47.0748 20.3203 50.0368 20.3203C52.9988 20.3203 54.9735 22.295 54.9735 25.257V74.6235ZM79.6567 74.6235C79.6567 77.5855 77.6821 79.5602 74.7201 79.5602C71.7581 79.5602 69.7834 77.5855 69.7834 74.6235V45.0036C69.7834 42.0416 71.7581 40.0669 74.7201 40.0669C77.6821 40.0669 79.6567 42.0416 79.6567 45.0036V74.6235Z" fill="#DA100B"/>
</svg>
