<svg width="25" height="26" viewBox="0 0 25 26" fill="none" xmlns="http://www.w3.org/2000/svg">
<path d="M12.0831 2.89612C17.6027 2.70337 22.2332 7.0214 22.426 12.541C22.6187 18.0607 18.3007 22.6912 12.7811 22.8839C7.26144 23.0767 2.63092 18.7587 2.43817 13.239C2.24542 7.71939 6.56345 3.08887 12.0831 2.89612ZM14.4797 14.2194L12.9603 15.5242C12.907 15.57 12.8639 15.6266 12.8339 15.6902C12.804 15.7538 12.7877 15.823 12.7863 15.8933C12.7849 15.9636 12.7983 16.0335 12.8257 16.0982C12.8531 16.163 12.8939 16.2212 12.9453 16.2692L14.2268 17.4642C14.475 17.6959 14.6601 17.9869 14.7646 18.3099L14.9609 18.9164C15.0424 19.1709 15.1796 19.4041 15.3624 19.599C15.5452 19.7939 15.7691 19.9457 16.0179 20.0432C16.9588 19.5711 17.7973 18.9178 18.4853 18.121L18.186 16.2533C18.1336 15.9283 18.0019 15.6213 17.8025 15.3595C17.6031 15.0977 17.3422 14.8891 17.0429 14.7523L15.5481 14.068C15.3742 13.9884 15.1811 13.9604 14.9917 13.9872C14.8024 14.0141 14.6247 14.0946 14.4797 14.2194ZM12.1529 4.8949C10.9297 4.9368 9.73247 5.25915 8.65359 5.83707C7.57472 6.41499 6.64303 7.23304 5.93042 8.2281L5.77323 8.45472L5.83203 10.1387C5.85321 10.7488 6.06004 11.338 6.42488 11.8275C6.78973 12.317 7.29523 12.6835 7.87388 12.8781L8.05387 12.9319L9.35687 13.2816C10.7437 13.6534 12.0409 12.4904 11.8591 11.0969L11.8351 10.9527L11.6236 9.91043C11.5768 9.67955 11.6131 9.43958 11.7259 9.23281C11.8388 9.02605 12.021 8.86576 12.2405 8.78021L12.3474 8.74646L12.9542 8.58519C13.2984 8.49375 13.6209 8.33428 13.9025 8.11619C14.1841 7.8981 14.4192 7.6258 14.5938 7.31538C14.7685 7.00495 14.8792 6.66268 14.9195 6.30877C14.9597 5.95485 14.9286 5.59647 14.8281 5.25476C13.9632 4.98415 13.0586 4.86246 12.1529 4.8949Z" fill="#5552FF"/>
</svg>
