<svg width="106" height="106" viewBox="0 0 106 106" fill="none" xmlns="http://www.w3.org/2000/svg">
<path fill-rule="evenodd" clip-rule="evenodd" d="M52.9403 0.620546C47.8465 0.549322 42.7895 1.49201 38.0628 3.39385C33.3362 5.29568 29.0343 8.11874 25.407 11.699C21.7798 15.2792 18.8995 19.5453 16.9336 24.2493C14.9677 28.9533 13.9554 34.0014 13.9554 39.1004C13.9554 44.1994 14.9677 49.2475 16.9336 53.9515C18.8995 58.6555 21.7798 62.9216 25.407 66.5019C29.0343 70.0821 33.3362 72.9052 38.0628 74.807C42.7895 76.7088 47.8465 77.6515 52.9403 77.5803C63.1373 77.5803 72.9167 73.5258 80.127 66.3087C87.3374 59.0916 91.3882 49.3032 91.3882 39.0967C91.3882 28.8902 87.3374 19.1017 80.127 11.8846C72.9167 4.66755 63.1373 0.620546 52.9403 0.620546ZM54.4632 18.8149L59.5871 29.1322C59.6983 29.3944 59.8785 29.6214 60.1083 29.7893C60.3381 29.9573 60.6091 30.0597 60.8924 30.0859L72.2655 31.8129C72.5912 31.8546 72.8982 31.9884 73.1506 32.1987C73.4029 32.4089 73.5901 32.6868 73.6901 32.9999C73.7902 33.3129 73.7989 33.6479 73.7153 33.9657C73.6317 34.2835 73.4593 34.5709 73.2183 34.794L64.831 42.7836C64.7049 43.0219 64.6389 43.2874 64.6389 43.557C64.6389 43.8267 64.7049 44.0922 64.831 44.3304L66.4364 55.654C66.504 55.9801 66.4759 56.3187 66.3556 56.6292C66.2353 56.9396 66.0279 57.2087 65.7583 57.4039C65.4888 57.5991 65.1687 57.7121 64.8364 57.7294C64.5042 57.7467 64.174 57.6674 63.8857 57.5012L53.758 52.1398C53.4952 52.0205 53.2101 51.9589 52.9215 51.9589C52.633 51.9589 52.3478 52.0205 52.0851 52.1398L41.9573 57.5012C41.669 57.6674 41.3389 57.7467 41.0067 57.7294C40.6744 57.7121 40.3543 57.5991 40.0847 57.4039C39.8152 57.2087 39.6078 56.9396 39.4875 56.6292C39.3672 56.3187 39.3391 55.9801 39.4066 55.654L41.3047 44.3304C41.3873 44.068 41.4032 43.789 41.3507 43.5189C41.2983 43.2488 41.1794 42.996 41.0046 42.7836L32.6098 34.7339C32.3843 34.5086 32.2256 34.2252 32.1512 33.9151C32.0768 33.6049 32.0896 33.2803 32.1883 32.977C32.287 32.6738 32.4676 32.4038 32.7102 32.197C32.9527 31.9902 33.2478 31.8547 33.5626 31.8054L44.9431 30.1459C45.2265 30.1198 45.4975 30.0173 45.7273 29.8494C45.9571 29.6815 46.1372 29.4544 46.2485 29.1923L51.3724 18.8749C51.5088 18.5821 51.7245 18.3334 51.995 18.1572C52.2656 17.9809 52.5801 17.8842 52.9028 17.8779C53.2256 17.8717 53.5436 17.9562 53.8207 18.1218C54.0979 18.2874 54.3231 18.5275 54.4707 18.8149H54.4632ZM92.7235 65.656C86.2503 75.3467 76.4787 82.352 65.2286 85.3671L75.8215 103.734C76.192 104.377 76.7448 104.896 77.4099 105.225C78.075 105.554 78.8226 105.678 79.5581 105.581C80.2936 105.485 80.984 105.172 81.5421 104.683C82.1002 104.194 82.5008 103.55 82.6933 102.833L86.5193 88.5735L100.758 92.3956C101.475 92.587 102.232 92.5615 102.934 92.3225C103.636 92.0834 104.251 91.6415 104.702 91.0525C105.153 90.4635 105.42 89.7539 105.468 89.0133C105.517 88.2727 105.345 87.5343 104.974 86.8915L92.7235 65.656ZM40.6895 85.3746C29.4326 82.383 19.6517 75.3856 13.1796 65.6936L0.951273 86.8915C0.580656 87.5343 0.408701 88.2727 0.45713 89.0133C0.50556 89.7539 0.772203 90.4635 1.22337 91.0525C1.67454 91.6415 2.28999 92.0834 2.99198 92.3225C3.69397 92.5615 4.45099 92.587 5.16741 92.3956L19.4138 88.5735L23.2323 102.833C23.4248 103.55 23.8255 104.194 24.3835 104.683C24.9416 105.172 25.632 105.485 26.3675 105.581C27.103 105.678 27.8506 105.554 28.5157 105.225C29.1808 104.896 29.7336 104.377 30.1041 103.734L40.6895 85.3746Z" fill="#DA100B"/>
</svg>
