<svg width="100" height="100" viewBox="0 0 100 100" fill="none" xmlns="http://www.w3.org/2000/svg">
<path d="M52.4356 84.8751C57.0062 84.5675 61.4716 83.3626 65.5766 81.3293C69.6816 79.2961 73.346 76.4741 76.3604 73.0247C79.3748 69.5752 81.6804 65.5658 83.1453 61.2254C84.6102 56.8849 85.2059 52.2985 84.8983 47.7278C84.5907 43.1571 83.3859 38.6918 81.3526 34.5868C79.3193 30.4818 76.4974 26.8174 73.048 23.803C69.5985 20.7885 65.5891 18.483 61.2487 17.0181C56.9082 15.5532 52.3217 14.9575 47.7511 15.2651C38.5202 15.8863 29.9142 20.149 23.8263 27.1154C17.7383 34.0819 14.6671 43.1815 15.2883 52.4123C15.9095 61.6432 20.1722 70.2492 27.1387 76.3371C34.1052 82.4251 43.2047 85.4963 52.4356 84.8751ZM92.6328 47.2073C94.2138 70.7007 76.4495 91.0285 52.9561 92.6095C29.4627 94.1905 9.13491 76.4262 7.55389 52.9328C5.97287 29.4394 23.7372 9.11164 47.2306 7.53062C70.7239 5.94959 91.0518 23.7139 92.6328 47.2073ZM52.3739 79.0521L44.3108 79.5947L43.0095 60.2586L28.6621 61.2241L47.8127 21.088L55.8759 20.5454L57.1771 39.8815L71.5245 38.916L52.3739 79.0521ZM51.0227 63.8799L58.8191 47.5405L49.9632 48.1364L49.164 36.2602L41.3675 52.5996L50.2235 52.0037L51.0227 63.8799Z" fill="white"/>
</svg>
